<svg width="1111" height="216" viewBox="0 0 1111 216" fill="none" xmlns="http://www.w3.org/2000/svg">
                <path d="M1084.04 182.134C1088.17 170.987 1080.58 161.124 1075.97 159.416C1071.36 157.709 1074.81 166.032 1070.68 177.181C1066.55 188.33 1063.61 197.52 1068.22 199.227C1072.83 200.936 1079.91 193.283 1084.04 182.134Z" fill="#003370"></path>
                <path d="M1087.04 194.996C1098.66 192.489 1110.16 198.827 1109.13 194.025C1108.09 189.223 1098.28 181.475 1086.66 183.982C1075.04 186.489 1066.45 192.414 1067.49 197.216C1068.53 202.018 1075.42 197.503 1087.04 194.996Z" fill="#003370"></path>
                <g clip-path="url(#clip0_2687:23870)">
                    <path d="M912.295 121.058L898.557 171.739C897.35 176.187 900.679 180.574 905.259 180.574H932.735C937.315 180.574 940.644 176.187 939.437 171.739L925.699 121.058C923.838 114.189 914.156 114.189 912.295 121.058Z" fill="#EEC993"></path>
                    <path d="M919.558 139.082H918.439V205.397H919.558V139.082Z" fill="#131313"></path>
                    <path d="M919.399 170.341L918.602 169.552L927.534 160.391L928.328 161.18L919.399 170.341Z" fill="#131313"></path>
                    <path d="M918.547 157.451L912.858 149.703L913.757 149.035L919.449 156.783L918.547 157.451Z" fill="#131313"></path>
                </g>
                <path d="M173.692 183.239C174.002 175.449 167.261 170.846 164.043 170.718C160.824 170.59 164.666 175.078 164.356 182.868C164.046 190.657 164.084 196.983 167.304 197.111C170.522 197.239 173.382 191.029 173.692 183.239Z" fill="#003370"></path>
                <path d="M175.449 188.437C181.176 183.149 189.786 182.892 187.601 180.526C185.416 178.159 177.292 177.054 171.565 182.343C165.838 187.631 162.967 193.837 165.152 196.204C167.336 198.571 169.723 193.726 175.449 188.437Z" fill="#003370"></path>
                <path d="M157.551 187.723C152.263 181.997 143.7 181.057 146.067 178.872C148.433 176.686 156.619 176.23 161.908 181.957C167.196 187.684 169.565 194.098 167.199 196.284C164.834 198.47 162.84 193.45 157.551 187.723Z" fill="#003370"></path>
                <path d="M457.327 163.473C459.573 163.562 463.198 165.25 466.22 168.407C469.221 171.543 471.568 176.07 471.342 181.762C471.111 187.563 469.93 192.753 468.227 196.451C467.375 198.301 466.403 199.754 465.375 200.726C464.348 201.697 463.298 202.16 462.265 202.119C461.256 202.079 460.483 201.568 459.873 200.578C459.248 199.564 458.815 198.072 458.538 196.165C457.985 192.356 458.084 187.102 458.317 181.244C458.533 175.8 457.417 171.411 456.632 168.32C456.561 168.042 456.493 167.774 456.429 167.517C456.234 166.737 456.078 166.067 455.988 165.5C455.896 164.926 455.88 164.499 455.938 164.189C455.991 163.9 456.102 163.746 456.261 163.648C456.444 163.534 456.766 163.45 457.327 163.473Z" fill="#FFB40B" stroke="#FFB40B"></path>
                <path d="M459.381 200.919L459.381 200.919C458.68 200.16 458.351 199.059 458.424 197.648C458.496 196.235 458.972 194.553 459.827 192.704C461.537 189.009 464.721 184.743 468.986 180.805C473.184 176.927 478.264 175.391 482.7 175.261C484.918 175.195 486.965 175.482 488.649 175.996C490.343 176.513 491.629 177.248 492.367 178.047C492.728 178.439 492.774 178.686 492.751 178.837C492.725 179.008 492.585 179.243 492.178 179.547C491.78 179.843 491.205 180.147 490.465 180.479C489.729 180.81 488.858 181.154 487.881 181.539C487.815 181.565 487.748 181.591 487.681 181.617C483.808 183.14 478.448 185.248 474.142 189.225C471.976 191.224 470.129 193.18 468.528 194.929C468.096 195.4 467.684 195.855 467.288 196.291C466.211 197.479 465.262 198.525 464.399 199.383C463.208 200.568 462.257 201.312 461.449 201.578C461.061 201.705 460.723 201.717 460.408 201.624C460.089 201.53 459.748 201.317 459.381 200.919Z" fill="#FFB40B" stroke="#FFB40B"></path>
                <path d="M461.747 201.014L461.747 201.014C461.35 201.381 460.993 201.567 460.667 201.635C460.346 201.703 460.01 201.665 459.634 201.507C458.849 201.178 457.96 200.36 456.867 199.085C456.075 198.161 455.212 197.042 454.233 195.773C453.873 195.307 453.498 194.82 453.105 194.316C451.648 192.446 449.962 190.35 447.962 188.184C443.986 183.878 438.81 181.351 435.07 179.525C435.005 179.494 434.941 179.462 434.877 179.431C433.934 178.97 433.093 178.557 432.386 178.17C431.674 177.78 431.125 177.431 430.752 177.104C430.371 176.769 430.25 176.524 430.237 176.351C430.226 176.199 430.291 175.956 430.683 175.594C431.482 174.856 432.822 174.226 434.552 173.845C436.271 173.466 438.335 173.343 440.541 173.584C444.952 174.067 449.894 176.002 453.771 180.2C457.71 184.466 460.545 188.97 461.955 192.79C462.661 194.7 463.001 196.415 462.962 197.83C462.922 199.242 462.507 200.313 461.747 201.014Z" fill="#FFB40B" stroke="#FFB40B"></path>
                <path d="M598.074 80.3008L508.607 116.504V136.471L598.074 100.264L687.543 136.471V116.504L598.074 80.3008Z" fill="#003370"></path>
                <path d="M598.073 100.266L517.914 132.707V195.77H598.073H678.235V132.707L598.073 100.266Z" fill="#0B68FF"></path>
                <path d="M618.715 175.359H577.434V195.767H618.715V175.359Z" fill="#003370"></path>
                <path d="M602.477 129.938H593.673V138.676H602.477V129.938Z" fill="#D3EDFF"></path>
                <path d="M617.239 129.938H608.435V138.676H617.239V129.938Z" fill="#D3EDFF"></path>
                <path d="M632.006 129.938H623.202V138.676H632.006V129.938Z" fill="#D3EDFF"></path>
                <path d="M587.711 129.938H578.907V138.676H587.711V129.938Z" fill="#D3EDFF"></path>
                <path d="M572.949 129.938H564.145V138.676H572.949V129.938Z" fill="#D3EDFF"></path>
                <path d="M558.184 129.938H549.379V138.676H558.184V129.938Z" fill="#D3EDFF"></path>
                <path d="M652.727 138.676H661.531V129.937H652.727V138.676Z" fill="#D3EDFF"></path>
                <path d="M646.767 129.938H637.963V138.676H646.767V129.938Z" fill="#D3EDFF"></path>
                <path d="M534.616 138.676H543.42V129.937H534.616V138.676Z" fill="#D3EDFF"></path>
                <path d="M602.477 143.484H593.673V152.223H602.477V143.484Z" fill="#D3EDFF"></path>
                <path d="M617.239 143.484H608.435V152.223H617.239V143.484Z" fill="#D3EDFF"></path>
                <path d="M632.005 143.484H623.201V152.223H632.005V143.484Z" fill="#D3EDFF"></path>
                <path d="M652.728 152.223H661.532V143.484H652.728V152.223Z" fill="#D3EDFF"></path>
                <path d="M646.767 143.484H637.963V152.223H646.767V143.484Z" fill="#D3EDFF"></path>
                <path d="M578.909 152.223H587.713V143.484H578.909V152.223Z" fill="#D3EDFF"></path>
                <path d="M564.144 152.223H572.948V143.484H564.144V152.223Z" fill="#D3EDFF"></path>
                <path d="M543.421 143.484H534.617V152.223H543.421V143.484Z" fill="#D3EDFF"></path>
                <path d="M549.381 152.223H558.185V143.484H549.381V152.223Z" fill="#D3EDFF"></path>
                <path d="M602.477 157.027H593.673V165.766H602.477V157.027Z" fill="#D3EDFF"></path>
                <path d="M617.24 157.027H608.436V165.766H617.24V157.027Z" fill="#D3EDFF"></path>
                <path d="M632.005 157.027H623.201V165.766H632.005V157.027Z" fill="#D3EDFF"></path>
                <path d="M652.729 165.766H661.533V157.027H652.729V165.766Z" fill="#D3EDFF"></path>
                <path d="M646.768 157.027H637.963V165.766H646.768V157.027Z" fill="#D3EDFF"></path>
                <path d="M578.91 165.766H587.714V157.027H578.91V165.766Z" fill="#D3EDFF"></path>
                <path d="M564.144 165.766H572.948V157.027H564.144V165.766Z" fill="#D3EDFF"></path>
                <path d="M543.422 157.027H534.618V165.766H543.422V157.027Z" fill="#D3EDFF"></path>
                <path d="M549.381 165.766H558.186V157.027H549.381V165.766Z" fill="#D3EDFF"></path>
                <path d="M598.976 175.184H597.175V195.772H598.976V175.184Z" fill="#0B68FF"></path>
                <g clip-path="url(#clip1_2687:23870)">
                    <path d="M1014.74 36.041L959.893 69.7088V195.771H1069.59V69.7088L1014.74 36.041Z" fill="#0B68FF"></path>
                    <path d="M998.105 195.771H1031.37V142.555H998.105V195.771Z" fill="#003370"></path>
                    <path d="M1034.34 79.2246H995.137V94.8484H1034.34V79.2246Z" fill="#D3EDFF"></path>
                    <path d="M1015.34 79.2246H1014.14V94.8484H1015.34V79.2246Z" fill="#003370"></path>
                    <path d="M1035.19 94.248H994.286V95.4462H1035.19V94.248Z" fill="#003370"></path>
                    <path d="M1034.34 106.404H995.137V122.028H1034.34V106.404Z" fill="#D3EDFF"></path>
                    <path d="M1015.34 106.404H1014.14V122.028H1015.34V106.404Z" fill="#003370"></path>
                    <path d="M1035.19 121.428H994.286V122.626H1035.19V121.428Z" fill="#003370"></path>
                    <path d="M1014.74 68.8415C1019.6 68.8415 1023.54 64.9188 1023.54 60.0799C1023.54 55.2411 1019.6 51.3184 1014.74 51.3184C1009.88 51.3184 1005.94 55.2411 1005.94 60.0799C1005.94 64.9188 1009.88 68.8415 1014.74 68.8415Z" fill="#D3EDFF"></path>
                    <path d="M1015.34 51.3184H1014.14V68.8415H1015.34V51.3184Z" fill="#003370"></path>
                    <path d="M1023.54 59.4785H1005.94V60.6767H1023.54V59.4785Z" fill="#003370"></path>
                    <path d="M1059.24 79.2246H1043.55V94.8484H1059.24V79.2246Z" fill="#D3EDFF"></path>
                    <path d="M1060.45 94.248H1042.34V95.4462H1060.45V94.248Z" fill="#003370"></path>
                    <path d="M1059.24 106.404H1043.55V122.028H1059.24V106.404Z" fill="#D3EDFF"></path>
                    <path d="M1060.45 121.428H1042.34V122.626H1060.45V121.428Z" fill="#003370"></path>
                    <path d="M970.237 94.8496H985.934V79.2258H970.237V94.8496Z" fill="#D3EDFF"></path>
                    <path d="M987.138 94.248H969.034V95.4462H987.138V94.248Z" fill="#003370"></path>
                    <path d="M970.237 122.029H985.934V106.406H970.237V122.029Z" fill="#D3EDFF"></path>
                    <path d="M987.138 121.432H969.034V122.63H987.138V121.432Z" fill="#003370"></path>
                </g>
                <g clip-path="url(#clip2_2687:23870)">
                    <path d="M381.06 0.4375H379.213V24.956H381.06V0.4375Z" fill="#003370"></path>
                    <path d="M357.161 4.57031H355.312V21.2873H357.161V4.57031Z" fill="#003370"></path>
                    <path d="M375.972 4.80906L374.752 6.19141L384.31 14.5775L385.529 13.1951L375.972 4.80906Z" fill="#003370"></path>
                    <path d="M400.078 29.4929L300.3 2.53516V195.769H400.078V29.4929Z" fill="#AFDBFF"></path>
                    <path d="M439.326 114.652H400.078V195.772H439.326V114.652Z" fill="#0B68FF"></path>
                    <path d="M300.3 94.0664H245.917V195.767H300.3V94.0664Z" fill="#0B68FF"></path>
                    <path d="M296.42 87.1094H249.798V94.0665H296.42V87.1094Z" fill="#0B68FF"></path>
                    <path d="M292.341 103.676H253.873V105.517H292.341V103.676Z" fill="#003370"></path>
                    <path d="M292.342 113.73H253.873V115.572H292.342V113.73Z" fill="#003370"></path>
                    <path d="M292.342 123.781H253.873V125.622H292.342V123.781Z" fill="#003370"></path>
                    <path d="M292.341 133.832H253.873V135.673H292.341V133.832Z" fill="#003370"></path>
                    <path d="M292.342 143.887H253.873V145.728H292.342V143.887Z" fill="#003370"></path>
                    <path d="M292.341 153.941H253.873V155.783H292.341V153.941Z" fill="#003370"></path>
                    <path d="M292.342 163.992H253.873V165.833H292.342V163.992Z" fill="#003370"></path>
                    <path d="M292.341 174.047H253.873V175.888H292.341V174.047Z" fill="#003370"></path>
                    <path d="M390.677 57.7109H309.703V63.3927H390.677V57.7109Z" fill="#D3EDFF"></path>
                    <path d="M390.677 73.3555H309.703V79.0372H390.677V73.3555Z" fill="#D3EDFF"></path>
                    <path d="M390.677 88.9961H309.703V94.6779H390.677V88.9961Z" fill="#D3EDFF"></path>
                    <path d="M390.677 104.641H309.703V110.322H390.677V104.641Z" fill="#D3EDFF"></path>
                    <path d="M390.676 120.285H309.702V125.967H390.676V120.285Z" fill="#D3EDFF"></path>
                    <path d="M365.175 155.133H335.203V195.77H365.175V155.133Z" fill="#003370"></path>
                    <path d="M414.794 130.332H409.185V138.374H414.794V130.332Z" fill="#AFDBFF"></path>
                    <path d="M430.22 130.332H424.611V138.374H430.22V130.332Z" fill="#AFDBFF"></path>
                    <path d="M414.794 144.809H409.185V152.85H414.794V144.809Z" fill="#AFDBFF"></path>
                    <path d="M430.22 144.809H424.611V152.85H430.22V144.809Z" fill="#AFDBFF"></path>
                    <path d="M414.795 159.285H409.186V167.327H414.795V159.285Z" fill="#AFDBFF"></path>
                    <path d="M430.221 159.285H424.612V167.327H430.221V159.285Z" fill="#AFDBFF"></path>
                    <path d="M414.795 173.762H409.186V181.804H414.795V173.762Z" fill="#AFDBFF"></path>
                    <path d="M430.221 173.762H424.612V181.804H430.221V173.762Z" fill="#AFDBFF"></path>
                </g>
                <g clip-path="url(#clip3_2687:23870)">
                    <path d="M870.7 19.6836H757.45V195.772H870.7V19.6836Z" fill="#AFDBFF"></path>
                    <path d="M769.402 92.5234H768.146V97.1864H769.402V92.5234Z" fill="#003370"></path>
                    <path d="M780.726 92.5234H779.471V97.1864H780.726V92.5234Z" fill="#003370"></path>
                    <path d="M792.052 92.5234H790.797V97.1864H792.052V92.5234Z" fill="#003370"></path>
                    <path d="M803.376 92.5234H802.121V97.1864H803.376V92.5234Z" fill="#003370"></path>
                    <path d="M814.704 92.5234H813.449V97.1864H814.704V92.5234Z" fill="#003370"></path>
                    <path d="M826.029 92.5234H824.773V97.1864H826.029V92.5234Z" fill="#003370"></path>
                    <path d="M837.353 92.5234H836.098V97.1864H837.353V92.5234Z" fill="#003370"></path>
                    <path d="M848.679 92.5234H847.424V97.1864H848.679V92.5234Z" fill="#003370"></path>
                    <path d="M860.003 92.5234H858.748V97.1864H860.003V92.5234Z" fill="#003370"></path>
                    <path d="M871.328 97.1875H870.073V93.1504H758.077V97.1875H756.822V91.8984H871.328V97.1875Z" fill="#003370"></path>
                    <path d="M769.402 33.7891H768.146V38.4521H769.402V33.7891Z" fill="#003370"></path>
                    <path d="M780.726 33.7891H779.471V38.4521H780.726V33.7891Z" fill="#003370"></path>
                    <path d="M792.052 33.7891H790.797V38.4521H792.052V33.7891Z" fill="#003370"></path>
                    <path d="M803.376 33.7891H802.121V38.4521H803.376V33.7891Z" fill="#003370"></path>
                    <path d="M814.704 33.7891H813.449V38.4521H814.704V33.7891Z" fill="#003370"></path>
                    <path d="M826.029 33.7891H824.773V38.4521H826.029V33.7891Z" fill="#003370"></path>
                    <path d="M837.353 33.7891H836.098V38.4521H837.353V33.7891Z" fill="#003370"></path>
                    <path d="M848.679 33.7891H847.424V38.4521H848.679V33.7891Z" fill="#003370"></path>
                    <path d="M860.003 33.7891H858.748V38.4521H860.003V33.7891Z" fill="#003370"></path>
                    <path d="M871.328 38.4566H870.073V34.4161H758.077V38.4566H756.822V33.1641H871.328V38.4566Z" fill="#003370"></path>
                    <path d="M870.7 87.0547H757.449V88.3067H870.7V87.0547Z" fill="#003370"></path>
                    <path d="M824.417 47.7773H803.732V77.1746H824.417V47.7773Z" fill="#0B68FF"></path>
                    <path d="M824.417 61.8516H803.732V63.1036H824.417V61.8516Z" fill="#003370"></path>
                    <path d="M856.306 47.7773H835.621V77.1746H856.306V47.7773Z" fill="#0B68FF"></path>
                    <path d="M856.306 71.0156H835.621V72.2676H856.306V71.0156Z" fill="#003370"></path>
                    <path d="M792.528 47.7773H771.844V77.1746H792.528V47.7773Z" fill="#0B68FF"></path>
                    <path d="M792.528 55.4023H771.844V56.6544H792.528V55.4023Z" fill="#003370"></path>
                    <path d="M803.733 137.27H824.418V107.872H803.733V137.27Z" fill="#0B68FF"></path>
                    <path d="M824.417 127.996H803.732V129.248H824.417V127.996Z" fill="#003370"></path>
                    <path d="M771.845 137.27H792.529V107.872H771.845V137.27Z" fill="#0B68FF"></path>
                    <path d="M792.528 120.348H771.844V121.6H792.528V120.348Z" fill="#003370"></path>
                    <path d="M835.622 137.27H856.307V107.872H835.622V137.27Z" fill="#0B68FF"></path>
                    <path d="M856.306 119.309H835.621V120.561H856.306V119.309Z" fill="#003370"></path>
                    <path d="M839.932 152.465H788.219V195.773H839.932V152.465Z" fill="#003370"></path>
                    <path d="M814.704 152.465H813.449V195.773H814.704V152.465Z" fill="#AFDBFF"></path>
                    <path d="M861.664 152.465H847.747V171.291H861.664V152.465Z" fill="#0B68FF"></path>
                    <path d="M863.005 170.664H846.406V171.916H863.005V170.664Z" fill="#003370"></path>
                    <path d="M855.335 152.465H854.08V171.291H855.335V152.465Z" fill="#003370"></path>
                    <path d="M766.485 171.289H780.402V152.463H766.485V171.289Z" fill="#0B68FF"></path>
                    <path d="M781.743 170.664H765.145V171.916H781.743V170.664Z" fill="#003370"></path>
                    <path d="M774.073 152.461H772.818V171.287H774.073V152.461Z" fill="#003370"></path>
                    <path d="M819.093 172.438H817.838V175.792H819.093V172.438Z" fill="#AFDBFF"></path>
                    <path d="M810.312 172.438H809.057V175.792H810.312V172.438Z" fill="#AFDBFF"></path>
                </g>
                <g clip-path="url(#clip4_2687:23870)">
                    <path d="M121.733 36.0391H0.468262V195.769H121.733V36.0391Z" fill="#0B68FF"></path>
                    <path d="M36.267 54.9141H18.1719V82.6909H36.267V54.9141Z" fill="#D3EDFF"></path>
                    <path d="M70.1479 54.9141H52.0527V82.6909H70.1479V54.9141Z" fill="#D3EDFF"></path>
                    <path d="M104.031 54.9141H85.9355V82.6909H104.031V54.9141Z" fill="#D3EDFF"></path>
                    <path d="M36.2675 97.0039H18.1724V124.781H36.2675V97.0039Z" fill="#D3EDFF"></path>
                    <path d="M70.1479 97.0039H52.0527V124.781H70.1479V97.0039Z" fill="#D3EDFF"></path>
                    <path d="M104.031 97.0039H85.936V124.781H104.031V97.0039Z" fill="#D3EDFF"></path>
                    <path d="M70.1479 142.281H52.0527V170.058H70.1479V142.281Z" fill="#D3EDFF"></path>
                    <path d="M104.031 142.281H85.936V170.058H104.031V142.281Z" fill="#D3EDFF"></path>
                    <path d="M27.2183 142.281C33.4647 142.281 38.5274 147.333 38.5274 153.566V180.007H15.9092V153.566C15.9092 147.336 20.9746 142.281 27.2183 142.281Z" fill="#003370"></path>
                    <path d="M10.9869 180.012V185.264H6.51882V190.516H2.05078V195.771H39.4193V180.012H10.9869Z" fill="#AFDBFF"></path>
                    <path d="M37.4399 180.012H10.9648V185.264H37.4399V180.012Z" fill="#003370"></path>
                    <path d="M32.9829 185.262H6.50781V190.514H32.9829V185.262Z" fill="#003370"></path>
                    <path d="M28.5259 190.516H2.05078V195.768H28.5259V190.516Z" fill="#003370"></path>
                    <path d="M38.2298 184.797H4.86133V185.731H38.2298V184.797Z" fill="#AFDBFF"></path>
                    <path d="M39.4195 179.543H9.31055V180.477H39.4195V179.543Z" fill="#AFDBFF"></path>
                    <path d="M33.8368 190.047H0.468262V190.981H33.8368V190.047Z" fill="#AFDBFF"></path>
                    <path d="M16.0942 45.7461H15.1582V49.0891H16.0942V45.7461Z" fill="#003370"></path>
                    <path d="M31.2524 45.7461H30.3164V49.0891H31.2524V45.7461Z" fill="#003370"></path>
                    <path d="M46.4126 45.7461H45.4766V49.0891H46.4126V45.7461Z" fill="#003370"></path>
                    <path d="M61.5688 45.7461H60.6328V49.0891H61.5688V45.7461Z" fill="#003370"></path>
                    <path d="M76.727 45.7461H75.791V49.0891H76.727V45.7461Z" fill="#003370"></path>
                    <path d="M91.8852 45.7461H90.9492V49.0891H91.8852V45.7461Z" fill="#003370"></path>
                    <path d="M107.043 45.7461H106.107V49.0891H107.043V45.7461Z" fill="#003370"></path>
                    <path d="M122.203 49.0873H121.265V46.214H0.936002V49.0873H0V45.2773H122.203V49.0873Z" fill="#003370"></path>
                    <path d="M16.0942 89.8516H15.1582V93.1945H16.0942V89.8516Z" fill="#003370"></path>
                    <path d="M31.2524 89.8516H30.3164V93.1945H31.2524V89.8516Z" fill="#003370"></path>
                    <path d="M46.4126 89.8516H45.4766V93.1945H46.4126V89.8516Z" fill="#003370"></path>
                    <path d="M61.5688 89.8516H60.6328V93.1945H61.5688V89.8516Z" fill="#003370"></path>
                    <path d="M76.727 89.8516H75.791V93.1945H76.727V89.8516Z" fill="#003370"></path>
                    <path d="M91.8852 89.8516H90.9492V93.1945H91.8852V89.8516Z" fill="#003370"></path>
                    <path d="M107.043 89.8516H106.107V93.1945H107.043V89.8516Z" fill="#003370"></path>
                    <path d="M122.203 93.1928H121.265V90.3168H0.936002V93.1928H0V89.3828H122.203V93.1928Z" fill="#003370"></path>
                    <path d="M16.0942 133.953H15.1582V137.296H16.0942V133.953Z" fill="#003370"></path>
                    <path d="M31.2524 133.953H30.3164V137.296H31.2524V133.953Z" fill="#003370"></path>
                    <path d="M46.4126 133.953H45.4766V137.296H46.4126V133.953Z" fill="#003370"></path>
                    <path d="M61.5688 133.953H60.6328V137.296H61.5688V133.953Z" fill="#003370"></path>
                    <path d="M76.727 133.953H75.791V137.296H76.727V133.953Z" fill="#003370"></path>
                    <path d="M91.8852 133.953H90.9492V137.296H91.8852V133.953Z" fill="#003370"></path>
                    <path d="M107.043 133.953H106.107V137.296H107.043V133.953Z" fill="#003370"></path>
                    <path d="M122.203 137.294H121.265V134.418H0.936002V137.294H0V133.484H122.203V137.294Z" fill="#003370"></path>
                    <path d="M36.267 68.3359H18.1719V69.2699H36.267V68.3359Z" fill="#003370"></path>
                    <path d="M70.1479 76.5352H52.0527V77.4691H70.1479V76.5352Z" fill="#003370"></path>
                    <path d="M104.031 61.1484H85.936V62.0824H104.031V61.1484Z" fill="#003370"></path>
                    <path d="M36.267 107.18H18.1719V108.114H36.267V107.18Z" fill="#003370"></path>
                    <path d="M70.1479 117.266H52.0527V118.2H70.1479V117.266Z" fill="#003370"></path>
                    <path d="M104.031 102.887H85.9355V103.821H104.031V102.887Z" fill="#003370"></path>
                    <path d="M104.031 164.656H85.9355V165.59H104.031V164.656Z" fill="#003370"></path>
                    <path d="M70.1479 157.16H52.0527V158.094H70.1479V157.16Z" fill="#003370"></path>
                    <path d="M103.412 187.887H51.0176V195.765H103.412V187.887Z" fill="#D3EDFF"></path>
                    <path d="M110.156 180.918H56.5098V181.852H110.156V180.918Z" fill="#003370"></path>
                    <path d="M60.2954 181.387H59.3594V195.767H60.2954V181.387Z" fill="#003370"></path>
                    <path d="M69.6967 181.387H68.7607V195.767H69.6967V181.387Z" fill="#003370"></path>
                    <path d="M79.1005 181.387H78.1646V195.767H79.1005V181.387Z" fill="#003370"></path>
                    <path d="M88.5019 181.387H87.5659V195.767H88.5019V181.387Z" fill="#003370"></path>
                    <path d="M97.9062 181.387H96.9702V195.767H97.9062V181.387Z" fill="#003370"></path>
                    <path d="M107.308 181.387H106.372V195.767H107.308V181.387Z" fill="#003370"></path>
                </g>
                <g clip-path="url(#clip5_2687:23870)">
                    <path d="M228.545 158.384C230.23 147.848 223.029 137.945 212.461 136.264C201.892 134.584 191.958 141.763 190.273 152.298C188.587 162.834 195.788 172.737 206.357 174.418C216.925 176.098 226.859 168.919 228.545 158.384Z" fill="#FDC57F"></path>
                    <path d="M209.815 147.828H209.003V195.509H209.815V147.828Z" fill="#131313"></path>
                    <path d="M214.54 156.309L209.082 163.609L209.733 164.093L215.191 156.793L214.54 156.309Z" fill="#131313"></path>
                </g>
                <g clip-path="url(#clip6_2687:23870)">
                    <path d="M746.279 119.754C735.119 119.754 726.071 128.788 726.071 139.93V164.491C726.071 175.633 735.119 184.667 746.279 184.667C757.439 184.667 766.488 175.633 766.488 164.491V139.93C766.485 128.788 757.439 119.754 746.279 119.754Z" fill="#FBAE50"></path>
                    <path d="M746.839 133.859H745.719V205.393H746.839V133.859Z" fill="#131313"></path>
                    <path d="M753.218 159.704L745.819 170.352L746.739 170.989L754.137 160.341L753.218 159.704Z" fill="#131313"></path>
                    <path d="M739.344 146.566L738.424 147.203L745.82 157.852L746.74 157.216L739.344 146.566Z" fill="#131313"></path>
                </g>
                <path d="M495.561 185.7C490.561 178.748 481.611 179.32 478.737 181.387C475.865 183.453 482.226 184.739 487.226 191.693C492.227 198.647 496.539 204.097 499.412 202.031C502.286 199.966 500.561 192.654 495.561 185.7Z" fill="#003370"></path>
                <path d="M504.453 189.084C507.629 181.13 516.045 176.804 512.758 175.492C509.472 174.18 500.894 176.927 497.718 184.881C494.542 192.834 494.631 200.346 497.918 201.658C501.204 202.97 501.277 197.038 504.453 189.084Z" fill="#003370"></path>
                <path d="M704.717 183.026C698.504 174.763 687.718 175.682 684.302 178.249C680.887 180.816 688.598 182.207 694.81 190.472C701.022 198.737 706.366 205.205 709.781 202.638C713.197 200.072 710.929 191.292 704.717 183.026Z" fill="#EEC993"></path>
                <path d="M715.536 186.882C719.167 177.201 729.213 171.765 725.213 170.265C721.213 168.765 710.931 172.3 707.3 181.981C703.669 191.661 703.969 200.725 707.969 202.225C711.969 203.724 711.905 196.562 715.536 186.882Z" fill="#EEC993"></path>
                <defs>
                    <clipPath id="clip0_2687:23870">
                        <rect width="41.3759" height="89.4875" fill="white" transform="translate(898.311 115.906)"></rect>
                    </clipPath>
                    <clipPath id="clip1_2687:23870">
                        <rect width="109.694" height="159.73" fill="white" transform="translate(959.893 36.041)"></rect>
                    </clipPath>
                    <clipPath id="clip2_2687:23870">
                        <rect width="193.408" height="195.333" fill="white" transform="translate(245.917 0.4375)"></rect>
                    </clipPath>
                    <clipPath id="clip3_2687:23870">
                        <rect width="114.506" height="176.088" fill="white" transform="translate(756.822 19.6836)"></rect>
                    </clipPath>
                    <clipPath id="clip4_2687:23870">
                        <rect width="122.203" height="159.73" fill="white" transform="translate(0 36.0391)"></rect>
                    </clipPath>
                    <clipPath id="clip5_2687:23870">
                        <rect width="41.3759" height="63.5073" fill="white" transform="translate(187.221 132.262)"></rect>
                    </clipPath>
                    <clipPath id="clip6_2687:23870">
                        <rect width="40.4137" height="85.6386" fill="white" transform="translate(726.071 119.754)"></rect>
                    </clipPath>
                </defs>
            </svg>
