<!-- <svg width="24" height="25" viewBox="0 0 24 25" fill="none" xmlns="http://www.w3.org/2000/svg">
<path d="M14.25 3.77673C14.25 3.36252 14.5858 3.02673 15 3.02673L16 3.02673C19.1756 3.02673 21.75 5.6011 21.75 8.77673V9.77673C21.75 10.1909 21.4142 10.5267 21 10.5267C20.5858 10.5267 20.25 10.1909 20.25 9.77673V8.77673C20.25 6.42952 18.3472 4.52673 16 4.52673H15C14.5858 4.52673 14.25 4.19095 14.25 3.77673Z" fill="currentColor"/>
<path d="M2.25 8.77673C2.25 5.6011 4.82436 3.02673 8 3.02673H9C9.41421 3.02673 9.75 3.36252 9.75 3.77673C9.75 4.19095 9.41421 4.52673 9 4.52673H8C5.65279 4.52673 3.75 6.42952 3.75 8.77673V9.77673C3.75 10.1909 3.41421 10.5267 3 10.5267C2.58579 10.5267 2.25 10.1909 2.25 9.77673V8.77673Z" fill="currentColor"/>
<path fill-rule="evenodd" clip-rule="evenodd" d="M7.95525 6.02673C7.97013 6.02673 7.98504 6.02673 8 6.02673C8.01496 6.02673 8.02988 6.02673 8.04475 6.02673C8.47757 6.02668 8.8744 6.02663 9.19721 6.07003C9.55269 6.11783 9.92841 6.23027 10.2374 6.5393C10.5465 6.84832 10.6589 7.22405 10.7067 7.57953C10.7501 7.90234 10.7501 8.29917 10.75 8.73199C10.75 8.74686 10.75 8.76178 10.75 8.77673C10.75 8.79169 10.75 8.8066 10.75 8.82148C10.7501 9.2543 10.7501 9.65113 10.7067 9.97394C10.6589 10.3294 10.5465 10.7051 10.2374 11.0142C9.92841 11.3232 9.55269 11.4356 9.19721 11.4834C8.8744 11.5268 8.47756 11.5268 8.04474 11.5267C8.02987 11.5267 8.01496 11.5267 8 11.5267C7.98504 11.5267 7.97013 11.5267 7.95526 11.5267C7.52244 11.5268 7.1256 11.5268 6.80279 11.4834C6.44731 11.4356 6.07159 11.3232 5.76256 11.0142C5.45354 10.7051 5.34109 10.3294 5.2933 9.97394C5.2499 9.65113 5.24995 9.2543 5.25 8.82148C5.25 8.80661 5.25 8.79169 5.25 8.77673C5.25 8.76178 5.25 8.74686 5.25 8.73198C5.24995 8.29917 5.2499 7.90234 5.2933 7.57953C5.34109 7.22405 5.45354 6.84832 5.76256 6.5393C6.07159 6.23027 6.44731 6.11783 6.80279 6.07003C7.1256 6.02663 7.52244 6.02668 7.95525 6.02673ZM6.82335 7.5998C6.8235 7.59962 6.82332 7.59985 6.82335 7.5998ZM6.82567 7.59859L6.82335 7.5998L6.82186 7.6024C6.82085 7.60434 6.81923 7.60765 6.81716 7.6127C6.8082 7.63448 6.79291 7.68284 6.77992 7.7794C6.75159 7.99012 6.75 8.28413 6.75 8.77673C6.75 9.26934 6.75159 9.56335 6.77992 9.77407C6.79291 9.87063 6.8082 9.91899 6.81716 9.94077C6.81923 9.94581 6.82085 9.94913 6.82186 9.95106L6.82324 9.9535L6.82567 9.95487C6.8276 9.95588 6.83092 9.9575 6.83596 9.95958C6.85774 9.96854 6.90611 9.98383 7.00266 9.99681C7.21339 10.0251 7.50739 10.0267 8 10.0267C8.49261 10.0267 8.78661 10.0251 8.99734 9.99681C9.09389 9.98383 9.14226 9.96854 9.16404 9.95958C9.16908 9.9575 9.1724 9.95588 9.17433 9.95487L9.17676 9.9535L9.17814 9.95106C9.17915 9.94913 9.18077 9.94581 9.18284 9.94077C9.1918 9.91899 9.20709 9.87063 9.22008 9.77407C9.24841 9.56335 9.25 9.26934 9.25 8.77673C9.25 8.28413 9.24841 7.99012 9.22008 7.7794C9.20709 7.68284 9.1918 7.63448 9.18284 7.6127C9.18077 7.60765 9.17915 7.60434 9.17814 7.6024L9.17676 7.59997L9.17433 7.59859C9.1724 7.59758 9.16908 7.59597 9.16404 7.59389C9.14226 7.58493 9.09389 7.56964 8.99734 7.55666C8.78661 7.52833 8.49261 7.52673 8 7.52673C7.50739 7.52673 7.21339 7.52833 7.00266 7.55666C6.90611 7.56964 6.85774 7.58493 6.83596 7.59389C6.83092 7.59597 6.8276 7.59758 6.82567 7.59859ZM6.82324 9.9535C6.82297 9.95317 6.82284 9.95309 6.82324 9.9535ZM9.17676 9.9535C9.17672 9.95353 9.17694 9.95335 9.17676 9.9535Z" fill="currentColor"/>
<path fill-rule="evenodd" clip-rule="evenodd" d="M7.95526 14.0267C7.97013 14.0267 7.98504 14.0267 8 14.0267C8.01496 14.0267 8.02987 14.0267 8.04474 14.0267C8.47756 14.0267 8.8744 14.0266 9.19721 14.07C9.55269 14.1178 9.92841 14.2303 10.2374 14.5393C10.5465 14.8483 10.6589 15.224 10.7067 15.5795C10.7501 15.9023 10.7501 16.2992 10.75 16.732V16.8215C10.7501 17.2543 10.7501 17.6511 10.7067 17.9739C10.6589 18.3294 10.5465 18.7051 10.2374 19.0142C9.92841 19.3232 9.55269 19.4356 9.19721 19.4834C8.8744 19.5268 8.47756 19.5268 8.04474 19.5267H7.95526C7.52244 19.5268 7.1256 19.5268 6.80279 19.4834C6.44731 19.4356 6.07159 19.3232 5.76256 19.0142C5.45354 18.7051 5.34109 18.3294 5.2933 17.9739C5.2499 17.6511 5.24995 17.2543 5.25 16.8215V16.732C5.24995 16.2992 5.2499 15.9023 5.2933 15.5795C5.34109 15.224 5.45354 14.8483 5.76256 14.5393C6.07159 14.2303 6.44731 14.1178 6.80279 14.07C7.1256 14.0266 7.52244 14.0267 7.95526 14.0267ZM6.82567 15.5986L6.82324 15.6L6.82186 15.6024C6.82085 15.6043 6.81923 15.6077 6.81716 15.6127C6.8082 15.6345 6.79291 15.6828 6.77992 15.7794C6.75159 15.9901 6.75 16.2841 6.75 16.7767C6.75 17.2693 6.75159 17.5633 6.77992 17.7741C6.79291 17.8706 6.8082 17.919 6.81716 17.9408C6.81923 17.9458 6.82085 17.9491 6.82186 17.9511L6.82324 17.9535L6.82567 17.9549C6.8276 17.9559 6.83092 17.9575 6.83596 17.9596C6.85774 17.9685 6.90611 17.9838 7.00266 17.9968C7.21339 18.0251 7.50739 18.0267 8 18.0267C8.49261 18.0267 8.78661 18.0251 8.99734 17.9968C9.09389 17.9838 9.14226 17.9685 9.16404 17.9596C9.16605 17.9587 9.16779 17.958 9.16927 17.9573C9.17151 17.9563 9.17317 17.9555 9.17433 17.9549L9.17676 17.9535L9.17814 17.9511C9.17915 17.9491 9.18077 17.9458 9.18284 17.9408C9.1918 17.919 9.20709 17.8706 9.22008 17.7741C9.24841 17.5633 9.25 17.2693 9.25 16.7767C9.25 16.2841 9.24841 15.9901 9.22008 15.7794C9.20709 15.6828 9.1918 15.6345 9.18284 15.6127C9.18077 15.6077 9.17915 15.6043 9.17814 15.6024L9.17676 15.6L9.17433 15.5986C9.1724 15.5976 9.16908 15.596 9.16404 15.5939C9.14226 15.5849 9.09389 15.5696 8.99734 15.5567C8.78661 15.5283 8.49261 15.5267 8 15.5267C7.50739 15.5267 7.21339 15.5283 7.00266 15.5567C6.90611 15.5696 6.85774 15.5849 6.83596 15.5939C6.83092 15.596 6.8276 15.5976 6.82567 15.5986ZM6.82324 17.9535C6.82297 17.9532 6.82284 17.9531 6.82324 17.9535C6.82369 17.954 6.82358 17.9538 6.82324 17.9535Z" fill="currentColor"/>
<path fill-rule="evenodd" clip-rule="evenodd" d="M15.9553 14.0267H16.0447C16.4776 14.0267 16.8744 14.0266 17.1972 14.07C17.5527 14.1178 17.9284 14.2303 18.2374 14.5393C18.5465 14.8483 18.6589 15.224 18.7067 15.5795C18.7501 15.9023 18.7501 16.2992 18.75 16.732V16.8215C18.7501 17.2543 18.7501 17.6511 18.7067 17.9739C18.6589 18.3294 18.5465 18.7051 18.2374 19.0142C17.9284 19.3232 17.5527 19.4356 17.1972 19.4834C16.8744 19.5268 16.4776 19.5268 16.0447 19.5267H15.9553C15.5224 19.5268 15.1256 19.5268 14.8028 19.4834C14.4473 19.4356 14.0716 19.3232 13.7626 19.0142C13.4535 18.7051 13.3411 18.3294 13.2933 17.9739C13.2499 17.6511 13.2499 17.2543 13.25 16.8215V16.732C13.2499 16.2992 13.2499 15.9023 13.2933 15.5795C13.3411 15.224 13.4535 14.8483 13.7626 14.5393C14.0716 14.2303 14.4473 14.1178 14.8028 14.07C15.1256 14.0266 15.5224 14.0267 15.9553 14.0267ZM14.8233 15.5999C14.8236 15.5996 14.8237 15.5995 14.8233 15.5999C14.8228 15.6004 14.823 15.6002 14.8233 15.5999ZM14.8257 15.5986L14.8233 15.5999L14.8219 15.6024C14.8209 15.6043 14.8192 15.6077 14.8172 15.6127C14.8082 15.6345 14.7929 15.6828 14.7799 15.7794C14.7516 15.9901 14.75 16.2841 14.75 16.7767C14.75 17.2693 14.7516 17.5633 14.7799 17.7741C14.7929 17.8706 14.8082 17.919 14.8172 17.9408C14.8192 17.9458 14.8209 17.9491 14.8219 17.9511L14.8232 17.9535L14.8257 17.9549C14.8276 17.9559 14.8309 17.9575 14.836 17.9596C14.8577 17.9685 14.9061 17.9838 15.0027 17.9968C15.2134 18.0251 15.5074 18.0267 16 18.0267C16.4926 18.0267 16.7866 18.0251 16.9973 17.9968C17.0939 17.9838 17.1423 17.9685 17.164 17.9596C17.165 17.9592 17.166 17.9588 17.1668 17.9584C17.1703 17.9569 17.1728 17.9557 17.1743 17.9549L17.1768 17.9535L17.1781 17.9511C17.1791 17.9491 17.1808 17.9458 17.1828 17.9408C17.1918 17.919 17.2071 17.8706 17.2201 17.7741C17.2484 17.5633 17.25 17.2693 17.25 16.7767C17.25 16.2841 17.2484 15.9901 17.2201 15.7794C17.2071 15.6828 17.1918 15.6345 17.1828 15.6127C17.1808 15.6077 17.1791 15.6043 17.1781 15.6024L17.1768 15.6L17.1743 15.5986C17.1724 15.5976 17.1691 15.596 17.164 15.5939C17.1423 15.5849 17.0939 15.5696 16.9973 15.5567C16.7866 15.5283 16.4926 15.5267 16 15.5267C15.5074 15.5267 15.2134 15.5283 15.0027 15.5567C14.9061 15.5696 14.8577 15.5849 14.836 15.5939C14.8309 15.596 14.8276 15.5976 14.8257 15.5986Z" fill="currentColor"/>
<path d="M3 15.0267C3.41421 15.0267 3.75 15.3625 3.75 15.7767V16.7767C3.75 19.1239 5.65279 21.0267 8 21.0267H9C9.41422 21.0267 9.75 21.3625 9.75 21.7767C9.75 22.1909 9.41422 22.5267 9 22.5267H8C4.82436 22.5267 2.25 19.9524 2.25 16.7767L2.25 15.7767C2.25 15.3625 2.58579 15.0267 3 15.0267Z" fill="currentColor"/>
<path d="M21 15.0267C21.4142 15.0267 21.75 15.3625 21.75 15.7767V16.7767C21.75 19.9524 19.1756 22.5267 16 22.5267H15C14.5858 22.5267 14.25 22.1909 14.25 21.7767C14.25 21.3625 14.5858 21.0267 15 21.0267H16C18.3472 21.0267 20.25 19.1239 20.25 16.7767V15.7767C20.25 15.3625 20.5858 15.0267 21 15.0267Z" fill="currentColor"/>
</svg> -->

<svg width="24" height="24" viewBox="0 0 24 24" fill="none" xmlns="http://www.w3.org/2000/svg">
<mask id="path-1-outside-1_1607_1285" maskUnits="userSpaceOnUse" x="2" y="1" width="21" height="21" fill="black">
<rect fill="white" x="2" y="1" width="21" height="21"/>
<path d="M19 4C19 4.55228 19.4477 5 20 5C20.5523 5 21 4.55228 21 4C21 3.44772 20.5523 3 20 3C19.4477 3 19 3.44772 19 4Z"/>
</mask>
<path d="M15 3.75C15.4142 3.75 15.75 3.41421 15.75 3C15.75 2.58579 15.4142 2.25 15 2.25V3.75ZM21.75 9C21.75 8.58579 21.4142 8.25 21 8.25C20.5858 8.25 20.25 8.58579 20.25 9H21.75ZM5.06107 20.0451L4.62023 20.6518L4.62024 20.6518L5.06107 20.0451ZM3.95491 18.9389L4.56168 18.4981H4.56168L3.95491 18.9389ZM18.9389 20.0451L19.3798 20.6518H19.3798L18.9389 20.0451ZM20.0451 18.9389L20.6518 19.3798V19.3798L20.0451 18.9389ZM3.95491 5.06107L3.34815 4.62023L3.34815 4.62023L3.95491 5.06107ZM5.06107 3.95491L4.62023 3.34815L4.62023 3.34815L5.06107 3.95491ZM6.32665 14.5268C6.14423 14.8987 6.29782 15.3481 6.6697 15.5305C7.04158 15.7129 7.49093 15.5593 7.67335 15.1874L6.32665 14.5268ZM8.46033 11.8801L9.13368 12.2104L8.46033 11.8801ZM15.5397 12.1199L16.213 12.4502L15.5397 12.1199ZM17.6734 9.47316C17.8558 9.10127 17.7022 8.65192 17.3303 8.46951C16.9584 8.28709 16.5091 8.44068 16.3266 8.81256L17.6734 9.47316ZM12 12L11.3058 12.284L12 12ZM12 3.75H15V2.25H12V3.75ZM20.25 9V12H21.75V9H20.25ZM12 20.25C10.1084 20.25 8.74999 20.249 7.69804 20.135C6.66013 20.0225 6.00992 19.8074 5.50191 19.4383L4.62024 20.6518C5.42656 21.2377 6.37094 21.5 7.53648 21.6263C8.68798 21.751 10.1418 21.75 12 21.75V20.25ZM2.25 12C2.25 13.8582 2.24897 15.312 2.37373 16.4635C2.50001 17.6291 2.76232 18.5734 3.34815 19.3798L4.56168 18.4981C4.19259 17.9901 3.97745 17.3399 3.865 16.302C3.75103 15.25 3.75 13.8916 3.75 12H2.25ZM5.50191 19.4383C5.14111 19.1762 4.82382 18.8589 4.56168 18.4981L3.34815 19.3798C3.70281 19.8679 4.13209 20.2972 4.62023 20.6518L5.50191 19.4383ZM12 21.75C13.8582 21.75 15.312 21.751 16.4635 21.6263C17.6291 21.5 18.5734 21.2377 19.3798 20.6518L18.4981 19.4383C17.9901 19.8074 17.3399 20.0225 16.302 20.135C15.25 20.249 13.8916 20.25 12 20.25V21.75ZM20.25 12C20.25 13.8916 20.249 15.25 20.135 16.302C20.0225 17.3399 19.8074 17.9901 19.4383 18.4981L20.6518 19.3798C21.2377 18.5734 21.5 17.6291 21.6263 16.4635C21.751 15.312 21.75 13.8582 21.75 12H20.25ZM19.3798 20.6518C19.8679 20.2972 20.2972 19.8679 20.6518 19.3798L19.4383 18.4981C19.1762 18.8589 18.8589 19.1762 18.4981 19.4383L19.3798 20.6518ZM3.75 12C3.75 10.1084 3.75103 8.74999 3.865 7.69805C3.97745 6.66013 4.19259 6.00992 4.56168 5.50191L3.34815 4.62023C2.76232 5.42656 2.50001 6.37094 2.37373 7.53648C2.24897 8.68798 2.25 10.1418 2.25 12H3.75ZM12 2.25C10.1418 2.25 8.68798 2.24897 7.53648 2.37373C6.37094 2.50001 5.42656 2.76232 4.62023 3.34815L5.50191 4.56168C6.00992 4.19259 6.66013 3.97745 7.69805 3.865C8.74999 3.75103 10.1084 3.75 12 3.75V2.25ZM4.56168 5.50191C4.82382 5.14111 5.14111 4.82382 5.50191 4.56168L4.62023 3.34815C4.13209 3.70281 3.70281 4.13209 3.34815 4.62023L4.56168 5.50191ZM7.67335 15.1874L9.13368 12.2104L7.78698 11.5498L6.32665 14.5268L7.67335 15.1874ZM16.213 12.4502L17.6734 9.47316L16.3266 8.81256L14.8663 11.7896L16.213 12.4502ZM11.3058 12.284C12.185 14.433 15.1904 14.5348 16.213 12.4502L14.8663 11.7896C14.4137 12.7124 13.0833 12.6673 12.6942 11.716L11.3058 12.284ZM9.13368 12.2104C9.58632 11.2876 10.9167 11.3327 11.3058 12.284L12.6942 11.716C11.815 9.56698 8.80955 9.46517 7.78698 11.5498L9.13368 12.2104ZM17.5 4C17.5 5.38071 18.6193 6.5 20 6.5V3.5C20.2761 3.5 20.5 3.72386 20.5 4H17.5ZM20 6.5C21.3807 6.5 22.5 5.38071 22.5 4H19.5C19.5 3.72386 19.7239 3.5 20 3.5V6.5ZM22.5 4C22.5 2.61929 21.3807 1.5 20 1.5V4.5C19.7239 4.5 19.5 4.27614 19.5 4H22.5ZM20 1.5C18.6193 1.5 17.5 2.61929 17.5 4H20.5C20.5 4.27614 20.2761 4.5 20 4.5V1.5Z" fill="currentColor" mask="url(#path-1-outside-1_1607_1285)"/>
</svg>
