<svg width="24" height="24" viewBox="0 0 24 24" fill="currentColor" xmlns="http://www.w3.org/2000/svg">
  <path d="M17 4.25H7C4.381 4.25 2.25 6.381 2.25 9V15C2.25 17.619 4.381 19.75 7 19.75H17C19.619 19.75 21.75 17.619 21.75 15V9C21.75 6.381 19.619 4.25 17 4.25ZM7 5.75H17C18.792 5.75 20.25 7.208 20.25 9V9.25H3.75V9C3.75 7.208 5.208 5.75 7 5.75ZM17 18.25H7C5.208 18.25 3.75 16.792 3.75 15V10.75H20.25V15C20.25 16.792 18.792 18.25 17 18.25ZM10.75 15C10.75 15.414 10.414 15.75 10 15.75H7C6.586 15.75 6.25 15.414 6.25 15C6.25 14.586 6.586 14.25 7 14.25H10C10.414 14.25 10.75 14.586 10.75 15Z" fill="currentColor"/>
  </svg>
