<svg width="35" height="42" viewBox="0 0 35 42" fill="none" xmlns="http://www.w3.org/2000/svg">
<g filter="url(#filter0_d_1870_5126)">
<path d="M22.857 0.500717H12.0183C3.93768 0.500717 3.43768 0.500717 3.43768 8.78342V31.4485C3.43768 32.5871 4.08618 33.6228 5.13211 34.1511C6.17986 34.6795 7.42996 34.6046 8.40002 33.9559L17.1775 28.0847C17.3329 27.9818 17.5388 27.9818 17.6924 28.0847L26.4772 33.9559C27.0173 34.3169 27.6441 34.5 28.2764 34.5C28.7786 34.5 29.2826 34.3848 29.7433 34.1494C30.7892 33.6211 31.4377 32.5852 31.4377 31.4466V8.78342C31.4377 0.500717 31.4377 0.500717 22.857 0.500717ZM28.728 31.4485C28.728 31.6787 28.5763 31.7901 28.4859 31.8355C28.3974 31.8825 28.2168 31.9401 28.0181 31.8076L19.2333 25.9365C18.695 25.5756 18.0645 25.3959 17.434 25.3959C16.8036 25.3959 16.1714 25.5773 15.6331 25.9365L6.85549 31.8059C6.66039 31.9349 6.47975 31.8791 6.38943 31.8337C6.29911 31.7884 6.14736 31.6769 6.14736 31.4485V8.78342C6.14736 3.11631 6.38943 3.11631 12.0183 3.11631H22.857C28.728 3.11631 28.728 3.11631 28.728 8.78342V31.4485Z" fill="white"/>
</g>
<defs>
<filter id="filter0_d_1870_5126" x="0.437744" y="0.500732" width="34" height="41" filterUnits="userSpaceOnUse" color-interpolation-filters="sRGB">
<feFlood flood-opacity="0" result="BackgroundImageFix"/>
<feColorMatrix in="SourceAlpha" type="matrix" values="0 0 0 0 0 0 0 0 0 0 0 0 0 0 0 0 0 0 127 0" result="hardAlpha"/>
<feOffset dy="4"/>
<feGaussianBlur stdDeviation="1.5"/>
<feComposite in2="hardAlpha" operator="out"/>
<feColorMatrix type="matrix" values="0 0 0 0 0 0 0 0 0 0 0 0 0 0 0 0 0 0 0.1 0"/>
<feBlend mode="normal" in2="BackgroundImageFix" result="effect1_dropShadow_1870_5126"/>
<feBlend mode="normal" in="SourceGraphic" in2="effect1_dropShadow_1870_5126" result="shape"/>
</filter>
</defs>
</svg>
