<svg width="24" height="25" viewBox="0 0 24 25" fill="none" xmlns="http://www.w3.org/2000/svg">
  <path fill-rule="evenodd" clip-rule="evenodd" d="M16.4522 2.76976V3.81777C19.4609 4.11337 21 5.79736 21 8.82496V17.2001C21 20.5681 19.1043 22.279 15.3739 22.279H8.62609C4.89565 22.279 3 20.5681 3 17.2001V8.82496C3 6.80955 3.67826 5.3674 5.06957 4.52541C5.28888 4.37381 5.57263 4.36322 5.80202 4.49809C6.0314 4.63295 6.16687 4.88999 6.15169 5.16162C6.13652 5.43324 5.97333 5.67258 5.73043 5.77945C4.8087 6.3348 4.37391 7.3022 4.37391 8.82496V9.09369H17.0609C17.4403 9.09369 17.7478 9.4105 17.7478 9.80132C17.7478 10.1921 17.4403 10.509 17.0609 10.509H4.37391V17.2001C4.37391 19.7709 5.6087 20.8368 8.62609 20.8548H15.3739C18.3478 20.8548 19.6174 19.762 19.6174 17.1912V8.81601C19.6174 6.57665 18.6522 5.49281 16.4522 5.23304V5.91381C16.4014 6.27666 16.093 6.54155 15.7374 6.52773C15.3818 6.5139 15.0936 6.22582 15.0696 5.86006V2.70706C15.0763 2.51771 15.1565 2.33906 15.2921 2.2111C15.4278 2.08314 15.6076 2.01657 15.7913 2.02629C16.17 2.05028 16.4623 2.37902 16.4522 2.76976ZM8.70877 6.37259C8.57806 6.50555 8.40109 6.57905 8.21739 6.57665C7.8414 6.56688 7.54295 6.24746 7.54783 5.86006V2.76976C7.58736 2.40723 7.88498 2.13316 8.23913 2.13316C8.59328 2.13316 8.8909 2.40723 8.93044 2.76976V3.74611H12.8609C13.2403 3.74611 13.5478 4.06293 13.5478 4.45375C13.5478 4.84457 13.2403 5.16138 12.8609 5.16138H8.91304V5.86902C8.91306 6.05826 8.83949 6.23962 8.70877 6.37259ZM16.1913 12.7752C15.7111 12.7752 15.3217 13.1762 15.3217 13.6709C15.3217 14.1656 15.7111 14.5667 16.1913 14.5667C16.6716 14.5667 17.0609 14.1656 17.0609 13.6709C17.0609 13.4318 16.9681 13.2026 16.8031 13.0343C16.6382 12.8661 16.4147 12.7728 16.1826 12.7752H16.1913ZM11.1478 13.6709C11.1478 13.1762 11.5371 12.7752 12.0174 12.7752C12.4976 12.7752 12.887 13.1762 12.887 13.6709C12.887 14.1656 12.4976 14.5667 12.0174 14.5667C11.5371 14.5667 11.1478 14.1656 11.1478 13.6709ZM7.85217 12.7752C7.37193 12.7752 6.98261 13.1762 6.98261 13.6709C6.98261 14.1656 7.37193 14.5667 7.85217 14.5667C8.33242 14.5667 8.72174 14.1656 8.72174 13.6709C8.72175 13.4318 8.62894 13.2026 8.46398 13.0343C8.29902 12.8661 8.0756 12.7728 7.84348 12.7752H7.85217ZM15.3217 17.2987C15.3217 16.804 15.7111 16.4029 16.1913 16.4029H16.1826C16.4147 16.4005 16.6382 16.4939 16.8031 16.6621C16.9681 16.8303 17.0609 17.0595 17.0609 17.2987C17.0609 17.7934 16.6716 18.1944 16.1913 18.1944C15.7111 18.1944 15.3217 17.7934 15.3217 17.2987ZM12.0174 16.4029C11.5371 16.4029 11.1478 16.804 11.1478 17.2987C11.1478 17.7934 11.5371 18.1944 12.0174 18.1944C12.4976 18.1944 12.887 17.7934 12.887 17.2987C12.887 16.804 12.4976 16.4029 12.0174 16.4029ZM6.98261 17.2987C6.98261 16.804 7.37193 16.4029 7.85217 16.4029H7.84348C8.0756 16.4005 8.29902 16.4939 8.46398 16.6621C8.62894 16.8303 8.72175 17.0595 8.72174 17.2987C8.72174 17.7934 8.33242 18.1944 7.85217 18.1944C7.37193 18.1944 6.98261 17.7934 6.98261 17.2987Z" fill="currentColor"/>
  </svg>
