<svg width="24" height="26" viewBox="0 0 24 26" fill="currentColor" xmlns="http://www.w3.org/2000/svg">
  <path fill-rule="evenodd" clip-rule="evenodd" d="M9.04617 6.49979H20.286C20.6801 6.49979 21 6.83093 21 7.24005C21 7.65018 20.6801 7.98132 20.286 7.98132H3.71298C3.31894 7.98132 3 7.65018 3 7.24005C3 6.83093 3.31894 6.49979 3.71298 6.49979H6.90723C7.33248 6.49979 7.70214 6.18485 7.78504 5.75345L8.02303 4.518C8.26394 3.58027 9.04422 2.9585 9.93178 2.9585H14.0682C14.9558 2.9585 15.7361 3.58027 15.9662 4.47142C16.0687 4.86737 15.8424 5.27345 15.462 5.37978C15.0826 5.48611 14.6905 5.25117 14.5881 4.85522C14.5247 4.61117 14.3111 4.44104 14.0682 4.44104H9.93178C9.68892 4.44104 9.47532 4.61117 9.41192 4.85522L9.18467 6.04308C9.15345 6.20308 9.10469 6.35295 9.04617 6.49979ZM8.1547 21.6898C7.23788 21.6695 6.71899 21.1531 6.61268 20.1536C6.30642 17.2948 5.78169 10.5251 5.77681 10.4573C5.7456 10.0492 5.4013 9.75855 5.00824 9.77678C4.61517 9.81019 4.32257 10.1677 4.35475 10.5748C4.35963 10.6436 4.88534 17.4366 5.19355 20.3186C5.37789 22.0432 6.50051 23.1359 8.12544 23.1713H8.14007C8.52728 23.1713 8.84525 22.8503 8.85402 22.4462C8.86183 22.0371 8.54874 21.6979 8.1547 21.6898ZM18.9916 9.77708C18.6034 9.75581 18.2542 10.0485 18.223 10.4566C18.2181 10.5244 17.6895 17.3123 17.3862 20.1488C17.2779 21.1696 16.7522 21.6749 15.7778 21.6941L15.3903 21.7012C14.1533 21.7237 13.5774 21.7342 12.1954 21.7296H12.1934C11.7994 21.7296 11.4804 22.0587 11.4795 22.4668C11.4775 22.8769 11.7964 23.2091 12.1905 23.2111C12.4343 23.2121 12.6772 23.2121 12.921 23.2121C13.9403 23.2121 14.3473 23.2039 15.1118 23.1883C15.3122 23.1843 15.5371 23.1797 15.8041 23.1747C17.4954 23.1433 18.618 22.0729 18.8053 20.3108C19.1106 17.4541 19.6402 10.6439 19.6451 10.5761C19.6772 10.168 19.3846 9.8105 18.9916 9.77708Z" fill="currentColor"/>
  </svg>
