<svg width="48" height="48" viewBox="0 0 48 48" fill="none" xmlns="http://www.w3.org/2000/svg">
  <path d="M40.3751 28.9566C44.4333 28.9108 47.4261 25.5569 46.9502 21.5365C45.6275 10.3605 35.9652 1 24.0579 1C11.3234 1 1 11.2975 1 24C1 36.7025 11.3234 47 24.0579 47C27.5081 47 30.0731 46.2947 30.5743 44.2495C31.0756 42.2044 30.3932 41.6541 28.068 36C26.8793 33.1096 28.1709 30.4487 30.0731 29.5C31.9754 28.5512 36.2845 29.0027 40.3751 28.9566Z" fill="#FFD0C7"/>
  <path d="M27 19C29.7614 19 32 16.7614 32 14C32 11.2386 29.7614 9 27 9C24.2386 9 22 11.2386 22 14C22 16.7614 24.2386 19 27 19Z" fill="#BE8D84"/>
  <path d="M14 26C16.7614 26 19 23.7614 19 21C19 18.2386 16.7614 16 14 16C11.2386 16 9 18.2386 9 21C9 23.7614 11.2386 26 14 26Z" fill="#BE8D84"/>
  <path d="M18 39C20.2091 39 22 37.2091 22 35C22 32.7909 20.2091 31 18 31C15.7909 31 14 32.7909 14 35C14 37.2091 15.7909 39 18 39Z" fill="#BE8D84"/>
  </svg>
