<svg width="24" height="25" viewBox="0 0 24 25" fill="currentColor" xmlns="http://www.w3.org/2000/svg">
  <path fill-rule="evenodd" clip-rule="evenodd" d="M17.6223 4.94992C18.2528 5.45605 18.6839 6.12167 18.8346 6.82558C19.0029 7.61135 18.8169 8.40883 18.312 9.06807L9.70121 20.3135C9.26594 20.8824 8.61148 21.2141 7.90404 21.2237L4.58187 21.2662H4.57252C4.20997 21.2662 3.89521 21.011 3.81314 20.6495L3.06103 17.3384C2.90105 16.6334 3.05895 15.903 3.49526 15.3341L4.6255 13.8572C4.8904 13.5105 5.38073 13.4489 5.71939 13.7221C6.05804 13.9933 6.11726 14.4952 5.85132 14.8418L4.72107 16.3187C4.57772 16.5059 4.52577 16.7451 4.57875 16.9769L5.18854 19.6628L7.8843 19.6288C8.11596 19.6256 8.331 19.5171 8.47435 19.33L17.0852 8.08452C17.3054 7.79743 17.3813 7.48907 17.3127 7.16583C17.2389 6.82451 17.0083 6.48319 16.6613 6.20567L15.2174 5.04561C14.6585 4.59903 13.87 4.36935 13.3319 5.07432L12.1944 6.55869L13.9999 8.04093C14.3354 8.31526 14.3894 8.8182 14.1204 9.16058C13.9666 9.35835 13.7402 9.46043 13.5116 9.46043C13.3413 9.46043 13.1688 9.40301 13.0255 9.28499L11.2335 7.81444L8.28736 11.6625C8.02142 12.0092 7.53214 12.0719 7.19244 11.7976C6.85482 11.5264 6.79561 11.0245 7.06051 10.6779L12.1051 4.08971C13.0836 2.80949 14.7977 2.68403 16.1783 3.79092L17.6223 4.94992ZM13.5963 19.6714H20.2209C20.651 19.6714 21 20.0287 21 20.4689C21 20.9091 20.651 21.2663 20.2209 21.2663H13.5963C13.1652 21.2663 12.8172 20.9091 12.8172 20.4689C12.8172 20.0287 13.1652 19.6714 13.5963 19.6714Z" fill="currentColor"/>
  </svg>
