<svg width="24" height="24" viewBox="0 0 24 24" fill="currentColor" xmlns="http://www.w3.org/2000/svg">
  <path d="M11.9999 21C11.8683 21.0008 11.7378 20.9756 11.616 20.9258C11.4941 20.876 11.3833 20.8027 11.2899 20.71L3.51987 12.93C2.54523 11.9452 1.99854 10.6156 1.99854 9.23002C1.99854 7.84445 2.54523 6.51484 3.51987 5.53002C4.50213 4.55053 5.8327 4.00049 7.21987 4.00049C8.60704 4.00049 9.93761 4.55053 10.9199 5.53002L11.9999 6.61002L13.0799 5.53002C14.0621 4.55053 15.3927 4.00049 16.7799 4.00049C18.167 4.00049 19.4976 4.55053 20.4799 5.53002C21.4545 6.51484 22.0012 7.84445 22.0012 9.23002C22.0012 10.6156 21.4545 11.9452 20.4799 12.93L12.7099 20.71C12.6164 20.8027 12.5056 20.876 12.3838 20.9258C12.2619 20.9756 12.1315 21.0008 11.9999 21ZM7.21987 6.00002C6.79655 5.9981 6.37705 6.0802 5.98568 6.24155C5.59431 6.40291 5.23884 6.64031 4.93987 6.94002C4.33593 7.54714 3.99691 8.36866 3.99691 9.22502C3.99691 10.0814 4.33593 10.9029 4.93987 11.51L11.9999 18.58L19.0599 11.51C19.6638 10.9029 20.0028 10.0814 20.0028 9.22502C20.0028 8.36866 19.6638 7.54714 19.0599 6.94002C18.4435 6.35773 17.6278 6.03331 16.7799 6.03331C15.932 6.03331 15.1162 6.35773 14.4999 6.94002L12.7099 8.74002C12.6169 8.83375 12.5063 8.90814 12.3844 8.95891C12.2626 9.00968 12.1319 9.03582 11.9999 9.03582C11.8679 9.03582 11.7372 9.00968 11.6153 8.95891C11.4934 8.90814 11.3828 8.83375 11.2899 8.74002L9.49987 6.94002C9.2009 6.64031 8.84544 6.40291 8.45407 6.24155C8.06269 6.0802 7.6432 5.9981 7.21987 6.00002Z" fill="#7E7E7E"/>
  </svg>
