<svg width="48" height="48" viewBox="0 0 48 48" fill="none" xmlns="http://www.w3.org/2000/svg">
  <path d="M3.42809 21.114C2.62824 22.0182 2.99116 23.2486 4.16761 23.5025C5.08877 23.7012 6.35496 23.923 8.06066 24.1299C8.0201 25.4952 7.99536 27.0793 7.99536 28.9124C7.99536 33.7995 8.17119 36.917 8.35394 38.8373C8.5216 40.5991 9.71677 41.9412 11.4528 42.2282C13.7095 42.6014 17.6144 43 23.9993 43C30.3841 43 34.2891 42.6014 36.5458 42.2282C38.2818 41.9412 39.477 40.5991 39.6446 38.8373C39.8274 36.917 40.0032 33.7995 40.0032 28.9124C40.0032 27.0795 39.9785 25.4954 39.9379 24.1301C41.6442 23.9232 42.9107 23.7014 43.8322 23.5026C45.0089 23.2488 45.3718 22.018 44.5717 21.1136C43.1678 19.5268 40.5575 16.8216 36.0032 12.8123C30.7292 8.1695 27.1929 6.14975 25.3949 5.31228C24.5009 4.89585 23.4997 4.89591 22.6057 5.31242C20.808 6.14997 17.2721 8.16976 11.9974 12.8123C7.44193 16.8219 4.83163 19.5272 3.42809 21.114Z" fill="#FFD0C7"/>
  <path d="M16 36C16 35.0001 16.7764 34.1746 17.7754 34.1319C19.2168 34.0704 21.4274 34 24 34C26.5726 34 28.7832 34.0704 30.2246 34.1319C31.2236 34.1746 32 35.0001 32 36C32 36.9999 31.2236 37.8254 30.2246 37.8681C28.7832 37.9296 26.5726 38 24 38C21.4274 38 19.2168 37.9296 17.7754 37.8681C16.7764 37.8254 16 36.9999 16 36Z" fill="#C27C6E"/>
  </svg>
