<svg width="24" height="25" viewBox="0 0 24 25" fill="none" xmlns="http://www.w3.org/2000/svg">
  <path fill-rule="evenodd" clip-rule="evenodd" d="M20.1522 7.68757C20.8642 8.26748 21.2822 9.13991 21.2913 10.0652L21.2826 18.1402C21.2826 20.3336 19.5268 22.1117 17.3609 22.1117H15.6217C14.5734 22.1117 13.7222 21.2536 13.7174 20.192V16.5463C13.7174 16.2642 13.4916 16.0356 13.213 16.0356H10.6043C10.4691 16.0356 10.3394 16.0906 10.2446 16.1883C10.1498 16.286 10.0977 16.4182 10.1 16.5551V17.9465C10.1 18.3842 9.74961 18.739 9.31739 18.739C8.88517 18.739 8.53478 18.3842 8.53478 17.9465V16.5551C8.53478 15.997 8.75374 15.4616 9.14349 15.0669C9.53324 14.6723 10.0619 14.4505 10.613 14.4505H13.2217C14.3661 14.4554 15.2913 15.3962 15.2913 16.5551V20.192C15.2913 20.3768 15.4392 20.5266 15.6217 20.5266H17.4043C18.701 20.5266 19.7522 19.4621 19.7522 18.149V10.0828C19.7458 9.63592 19.5415 9.21562 19.1957 8.93801L13.187 4.08594C12.4293 3.45424 11.336 3.45424 10.5783 4.08594L8.64783 5.54773C8.29004 5.80792 7.79172 5.72512 7.53478 5.3628C7.27785 5.00048 7.35961 4.49583 7.71739 4.23564L9.62174 2.8355C10.9421 1.76068 12.8231 1.76068 14.1435 2.8355L20.1522 7.68757ZM6.42174 20.5178H10.4217V20.5354C10.854 20.5354 11.2043 20.8902 11.2043 21.3279C11.2043 21.7656 10.854 22.1205 10.4217 22.1205H6.42174C4.25781 22.1156 2.50478 20.3404 2.5 18.149V10.0828C2.51384 9.15068 2.94588 8.27564 3.67391 7.70518L4.39565 7.15921C4.73552 6.99696 5.14129 7.10221 5.36229 7.40993C5.58329 7.71766 5.55714 8.14101 5.3 8.41846L4.59565 8.94681C4.26191 9.2276 4.06776 9.64339 4.06522 10.0828V18.1402C4.07474 19.4527 5.12562 20.513 6.42174 20.5178Z" fill="currentColor"/>
</svg>
