<svg width="16" height="20" viewBox="0 0 16 20" fill="none" xmlns="http://www.w3.org/2000/svg">
  <path d="M6.9055 1.80397L7.3716 2.39155L6.9055 1.80397ZM9.0945 1.80397L9.5606 1.21638L9.0945 1.80397ZM7.5 15.2499C7.9142 15.2499 8.25 14.9141 8.25 14.4999C8.25 14.0857 7.9142 13.7499 7.5 13.7499V15.2499ZM5.75 11.9999C5.75 11.5857 5.41421 11.2499 5 11.2499C4.58579 11.2499 4.25 11.5857 4.25 11.9999H5.75ZM1.75 11.9999C1.75 9.16924 3.74493 5.26836 7.3716 2.39155L6.4394 1.21638C2.5718 4.28432 0.25 8.57964 0.25 11.9999H1.75ZM8.6284 2.39155C12.2551 5.26836 14.25 9.16924 14.25 11.9999H15.75C15.75 8.57964 13.4282 4.28432 9.5606 1.21638L8.6284 2.39155ZM14.25 11.9999C14.25 15.9356 11.0759 18.2499 8 18.2499V19.7499C11.7607 19.7499 15.75 16.9007 15.75 11.9999H14.25ZM8 18.2499C4.92415 18.2499 1.75 15.9356 1.75 11.9999H0.25C0.25 16.9007 4.23929 19.7499 8 19.7499V18.2499ZM7.3716 2.39155C7.7408 2.09865 8.2592 2.09865 8.6284 2.39155L9.5606 1.21638C8.6454 0.490372 7.3546 0.490372 6.4394 1.21638L7.3716 2.39155ZM7.5 13.7499C6.5335 13.7499 5.75 12.9664 5.75 11.9999H4.25C4.25 13.7948 5.70507 15.2499 7.5 15.2499V13.7499Z" fill="currentColor"/>
  </svg>
