<svg width="24" height="24" viewBox="0 0 24 24" fill="none" xmlns="http://www.w3.org/2000/svg">
<path fill-rule="evenodd" clip-rule="evenodd" d="M11.1 1.25C7.70442 1.25 5.07724 4.22603 5.49841 7.59536L5.57776 8.23021C5.69388 9.15916 5.35455 10.0871 4.66654 10.7219C3.24086 12.0375 2.84477 14.1315 3.69142 15.8769L3.79477 16.09C4.54092 17.6282 6.05598 18.6356 7.74728 18.7409L7.93556 19.0636C8.94835 20.7998 10.5264 21.75 12.1834 21.75C13.8404 21.75 15.4184 20.7998 16.4312 19.0636L16.6225 18.7358C18.0431 18.6235 19.3385 17.8513 20.1111 16.6373C21.2932 14.7799 20.9801 12.3432 19.3668 10.845L19.3229 10.8042C18.5844 10.1183 18.2208 9.11912 18.3458 8.11901L18.4104 7.60208C18.832 4.22918 16.202 1.25 12.8029 1.25H11.1ZM8.16917 17.25C8.17819 17.2498 8.18721 17.2498 8.19621 17.25H16.1706C16.1796 17.2498 16.1886 17.2498 16.1976 17.25H16.2623C17.3092 17.25 18.2835 16.7152 18.8456 15.832C19.6391 14.5852 19.4289 12.9497 18.3461 11.9441L18.3022 11.9033C17.2102 10.8892 16.6725 9.41174 16.8574 7.93296L16.922 7.41603C17.2317 4.93841 15.2998 2.75 12.8029 2.75H11.1C8.60667 2.75 6.67757 4.93526 6.98682 7.40931L7.06618 8.04416C7.24234 9.45345 6.72755 10.8611 5.68379 11.8243C4.74404 12.6915 4.48294 14.0718 5.04102 15.2223L5.14438 15.4353C5.68275 16.5452 6.8079 17.25 8.04147 17.25H8.16917ZM12.1834 20.25C11.2623 20.25 10.2795 19.7877 9.52013 18.75H14.8467C14.0873 19.7877 13.1045 20.25 12.1834 20.25Z" fill="currentColor"/>
</svg>
