<svg width="24" height="24" viewBox="0 0 24 24" fill="none" xmlns="http://www.w3.org/2000/svg">
<path d="M15.7831 3C14.9084 2.16572 14.1224 2 12.8029 2H11.0999C8.15552 2 5.87737 4.58064 6.24258 7.50234L6.32194 8.13719C6.46808 9.30631 6.04102 10.4741 5.17514 11.2731C3.99242 12.3645 3.66383 14.1016 4.36619 15.5496L4.46954 15.7627C5.13331 17.1311 6.52054 18 8.04144 18H16.2623C17.5656 18 18.7785 17.3342 19.4783 16.2347C20.4661 14.6826 20.2045 12.6465 18.8564 11.3945L18.8125 11.3538C18.5689 11.1275 18.3582 10.8738 18.1831 10.5999M8.18311 18L8.58311 18.6857C10.3831 21.7714 13.9831 21.7714 15.7831 18.6857L16.1831 18" stroke="currentColor" stroke-width="1.5" stroke-linecap="round"/>
<path d="M20 6.5C20 7.88071 18.8807 9 17.5 9C16.1193 9 15 7.88071 15 6.5C15 5.11929 16.1193 4 17.5 4C18.8807 4 20 5.11929 20 6.5Z" fill="#E93636"/>
</svg>
