<svg width="18" height="18" viewBox="0 0 18 18" fill="currentColor" xmlns="http://www.w3.org/2000/svg">
  <g clip-path="url(#clip0_16_820)">
  <path d="M15.75 15H17.25V16.5H0.75V15H2.25V2.25C2.25 2.05109 2.32902 1.86032 2.46967 1.71967C2.61032 1.57902 2.80109 1.5 3 1.5H15C15.1989 1.5 15.3897 1.57902 15.5303 1.71967C15.671 1.86032 15.75 2.05109 15.75 2.25V15ZM14.25 15V3H3.75V15H14.25ZM6 8.25H8.25V9.75H6V8.25ZM6 5.25H8.25V6.75H6V5.25ZM6 11.25H8.25V12.75H6V11.25ZM9.75 11.25H12V12.75H9.75V11.25ZM9.75 8.25H12V9.75H9.75V8.25ZM9.75 5.25H12V6.75H9.75V5.25Z" fill="white"/>
  </g>
  <defs>
  <clipPath id="clip0_16_820">
  <rect width="18" height="18" fill="white"/>
  </clipPath>
  </defs>
  </svg>
