<svg width="22" height="22" viewBox="0 0 22 22" fill="none" xmlns="http://www.w3.org/2000/svg">
  <path d="M17.3639 10.1924V9.6267C17.3639 9.5421 17.3639 9.4997 17.3634 9.4639C17.3247 6.75855 15.1409 4.57479 12.4355 4.53605C12.3997 4.53553 12.3574 4.53553 12.2728 4.53553H11.7071M20.8996 10.8995V9.9095C20.8996 9.0649 20.8996 8.64258 20.8677 8.28659C20.5226 4.43191 17.4677 1.37699 13.613 1.03187C13.257 1 12.8347 1 11.99 1H11.0001M7.77785 8.22339C7.32461 9.2632 7.554 10.4744 8.35605 11.2765L10.7529 13.6733C11.5549 14.4753 12.7661 14.7047 13.8059 14.2515C14.8457 13.7982 16.057 14.0276 16.859 14.8297L18.3172 16.2879C18.3878 16.3585 18.4232 16.3938 18.4518 16.425C19.1548 17.1901 19.1548 18.3662 18.4518 19.1314C18.4232 19.1625 18.3878 19.1978 18.3172 19.2685L17.4309 20.1548C16.7091 20.8766 15.6685 21.1796 14.6721 20.9582C7.88248 19.4494 2.57995 14.1468 1.07115 7.35725C0.849712 6.36079 1.15272 5.32026 1.87451 4.59846L2.76085 3.71212C2.8315 3.64147 2.86682 3.60615 2.89794 3.57756C3.6631 2.87448 4.83921 2.87448 5.60436 3.57756C5.63548 3.60615 5.67081 3.64147 5.74145 3.71212L7.19965 5.17032C8.0017 5.97237 8.23109 7.18361 7.77785 8.22339Z" stroke="currentColor" stroke-width="1.5" stroke-linecap="round"/>
  </svg>
