<svg width="44" height="44" viewBox="0 0 44 44" fill="none" xmlns="http://www.w3.org/2000/svg">
  <path d="M24.5 6.76726L24.5007 6.76867L27.7246 13.2165C27.7251 13.2175 27.7256 13.2185 27.7261 13.2196C28.0136 13.8049 28.5102 14.3306 29.0483 14.7276C29.5878 15.1256 30.2369 15.4445 30.8782 15.5514L30.8786 15.5514L36.7265 16.5231C38.4672 16.8132 39.2845 17.5433 39.5114 18.2494C39.7379 18.9539 39.5 20.0193 38.2463 21.2644L38.2445 21.2663L33.6978 25.8129C33.2004 26.3103 32.8494 26.9977 32.6523 27.686C32.4552 28.3747 32.3899 29.1424 32.543 29.8256L32.543 29.8256L32.5441 29.8306L33.8457 35.4583C34.3444 37.6226 33.9249 38.7392 33.3578 39.1526C32.7894 39.567 31.5933 39.6256 29.6779 38.4942L24.1972 35.2497C23.5582 34.8711 22.7619 34.7049 22.0067 34.7049C21.2509 34.7049 20.4528 34.8713 19.8077 35.2467L19.8077 35.2466L19.8028 35.2495L14.3211 38.4945L14.3204 38.4949C12.4179 39.624 11.2208 39.5632 10.649 39.1459C10.0777 38.7291 9.6561 37.61 10.1539 35.459L10.1539 35.4589L11.4555 29.8306L11.4556 29.8306L11.4567 29.8256C11.6098 29.1424 11.5445 28.3747 11.3473 27.686C11.1503 26.9977 10.7992 26.3103 10.3018 25.8129L5.75516 21.2663C4.50983 20.0209 4.27002 18.9543 4.49554 18.2481C4.72083 17.5426 5.53324 16.813 7.27313 16.5231L13.1211 15.5515L13.1237 15.551C13.7567 15.4435 14.4009 15.1238 14.9367 14.7265C15.4716 14.33 15.9679 13.8046 16.2553 13.2194L19.48 6.77007C19.4801 6.76986 19.4802 6.76965 19.4803 6.76944C20.306 5.12692 21.261 4.55701 21.9975 4.55701C22.7328 4.55701 23.6833 5.12541 24.5 6.76726Z" fill="#E8E8E8" stroke="#E8E8E8" stroke-width="1.5" stroke-linecap="round" stroke-linejoin="round"/>
  <path d="M18.1114 21.1174C18.7991 21.1174 19.3566 20.5599 19.3566 19.8722C19.3566 19.1844 18.7991 18.627 18.1114 18.627C17.4237 18.627 16.8662 19.1844 16.8662 19.8722C16.8662 20.5599 17.4237 21.1174 18.1114 21.1174Z" fill="#C6C6C6"/>
  <path d="M26.0265 21.1174C26.7142 21.1174 27.2716 20.5599 27.2716 19.8722C27.2716 19.1844 26.7142 18.627 26.0265 18.627C25.3388 18.627 24.7812 19.1844 24.7812 19.8722C24.7812 20.5599 25.3388 21.1174 26.0265 21.1174Z" fill="#C6C6C6"/>
  <path d="M17.4959 25.6116C17.1655 25.6204 16.9717 25.938 16.9717 26.7935C16.9717 29.6346 21.1387 29.723 21.9485 29.7133C22.7242 29.7241 26.9388 29.6502 26.9388 26.7937C26.9388 25.9645 26.7567 25.6406 26.4446 25.6135" fill="#C6C6C6"/>
  </svg>
