<svg width="24" height="25" viewBox="0 0 24 25" fill="none" xmlns="http://www.w3.org/2000/svg">
  <path d="M21.7555 20.8678L18.3182 17.4645L18.2376 17.3404C18.0878 17.1894 17.883 17.1043 17.6692 17.1043C17.4554 17.1043 17.2505 17.1894 17.1007 17.3404C14.1795 20.0545 9.67815 20.202 6.58201 17.6852C3.48586 15.1684 2.75567 10.7682 4.87568 7.40287C6.9957 4.03753 11.3081 2.7513 14.9528 4.3972C18.5976 6.0431 20.4438 10.1104 19.267 13.9017C19.1823 14.1756 19.2515 14.4734 19.4487 14.683C19.6459 14.8926 19.9411 14.9822 20.223 14.9179C20.505 14.8536 20.7309 14.6453 20.8156 14.3714C22.2224 9.87227 20.0977 5.03055 15.8161 2.97835C11.5345 0.926157 6.38084 2.27936 3.68905 6.16259C0.99727 10.0458 1.57518 15.2937 5.04893 18.5113C8.52268 21.729 13.8498 21.9508 17.5841 19.0332L20.6277 22.0466C20.942 22.3564 21.4502 22.3564 21.7645 22.0466C22.0785 21.7323 22.0785 21.2264 21.7645 20.9122L21.7555 20.8678Z" fill="currentColor"/>
  </svg>
