<svg width="18" height="18" viewBox="0 0 18 18" fill="currentColor" xmlns="http://www.w3.org/2000/svg">
  <path d="M8.501 15.7501C8.4023 15.7507 8.30445 15.7318 8.21307 15.6945C8.1217 15.6571 8.03858 15.6021 7.9685 15.5326L2.141 9.69764C1.41002 8.95902 1 7.96181 1 6.92263C1 5.88346 1.41002 4.88625 2.141 4.14763C2.8777 3.41302 3.87563 3.00049 4.916 3.00049C5.95638 3.00049 6.95431 3.41302 7.691 4.14763L8.501 4.95764L9.311 4.14763C10.0477 3.41302 11.0456 3.00049 12.086 3.00049C13.1264 3.00049 14.1243 3.41302 14.861 4.14763C15.592 4.88625 16.002 5.88346 16.002 6.92263C16.002 7.96181 15.592 8.95902 14.861 9.69764L9.0335 15.5326C8.96342 15.6021 8.88031 15.6571 8.78893 15.6945C8.69756 15.7318 8.59971 15.7507 8.501 15.7501Z" fill="#FF0000"/>
  </svg>
