<svg width="24" height="25" viewBox="0 0 24 25" fill="none" xmlns="http://www.w3.org/2000/svg">
  <path d="M13.9997 8.38603C14.3224 9.33867 15.2479 9.98366 16.2922 9.98366M5.09755 7.51471C6.66959 7.51471 8.06284 6.50245 8.54862 5.00736C9.63488 1.66422 14.3645 1.66422 15.4508 5.00736C15.9366 6.50245 17.3298 7.51471 18.9019 7.51471C22.417 7.51471 23.8786 12.0129 21.0347 14.079C19.7629 15.0031 19.2308 16.6409 19.7165 18.136C20.8028 21.4792 16.9764 24.2592 14.1326 22.193C12.8608 21.269 11.1386 21.269 9.86682 22.193C7.02297 24.2592 3.19661 21.4792 4.28286 18.136C4.76865 16.6409 4.23647 15.0031 2.96466 14.079C0.12082 12.0129 1.58236 7.51471 5.09755 7.51471Z" stroke="#FFD12D" stroke-width="1.5" stroke-linecap="round"/>
  </svg>
