<svg width="48" height="48" viewBox="0 0 48 48" fill="none" xmlns="http://www.w3.org/2000/svg">
  <path d="M4.56559 8.36494C4.75483 6.6619 5.86253 5.31368 7.54812 5.00556C10.119 4.53562 15.019 4 24 4C32.981 4 37.881 4.53562 40.4519 5.00556C42.1375 5.31368 43.2452 6.6619 43.4344 8.36494C43.6982 10.739 44 14.808 44 21C44 27.192 43.6982 31.261 43.4344 33.6351C43.2452 35.3381 42.1375 36.6863 40.4519 36.9944C37.881 37.4644 32.981 38 24 38C15.019 38 10.119 37.4644 7.54813 36.9944C5.86253 36.6863 4.75483 35.3381 4.56559 33.6351C4.30178 31.261 4 27.192 4 21C4 14.808 4.30178 10.739 4.56559 8.36494Z" fill="#FFD0C7"/>
  <path d="M12 22.5975C12 21.8488 12.5519 21.2163 13.2975 21.1482C14.0419 21.0802 15.0209 21.0137 16 21.0137C16.9791 21.0137 17.9581 21.0802 18.7025 21.1482C19.4481 21.2163 20 21.8488 20 22.5975V24.4209C20 25.1734 19.4427 25.8081 18.6931 25.8747C17.9498 25.9408 16.9749 26.0069 16 26.0137C15.0168 26.0205 14.0337 25.9534 13.2881 25.8835C12.5465 25.814 12 25.1836 12 24.4387V22.5975Z" fill="#C27C6E"/>
  <path d="M12 13.7403C12 12.9321 12.6368 12.2696 13.4446 12.2438C15.9352 12.1644 21.0531 12.0137 24 12.0137C26.9469 12.0137 32.0648 12.1644 34.5554 12.2438C35.3632 12.2696 36 12.9321 36 13.7403V15.2871C36 16.0952 35.3632 16.7578 34.5554 16.7835C32.0648 16.8629 26.9469 17.0137 24 17.0137C21.0531 17.0137 15.9352 16.8629 13.4446 16.7835C12.6368 16.7578 12 16.0952 12 15.2871V13.7403Z" fill="#C27C6E"/>
  <path d="M24 30.0123C24 31.1315 24.5155 32.13 25.3216 32.7829C25.2125 33.8154 25.553 34.8865 26.3432 35.6779C26.7721 36.1074 27.2833 36.4043 27.8259 36.5685C27.8333 38.491 27.8901 40.7173 28.0433 43.0808C28.0961 43.8962 29.0539 44.2895 29.6717 43.7558L31.5102 42.1677C31.7916 41.9246 32.2084 41.9246 32.4899 42.1677L34.3283 43.7558C34.9461 44.2895 35.9039 43.8962 35.9568 43.0808C36.1099 40.7173 36.1667 38.491 36.1741 36.5685C36.7168 36.4043 37.228 36.1074 37.6569 35.6779C38.447 34.8865 38.7875 33.8153 38.6784 32.7828C39.4845 32.13 40 31.1314 40 30.0123C40 28.8932 39.4845 27.8946 38.6784 27.2418C38.7875 26.2093 38.447 25.1381 37.6569 24.3468C36.8667 23.5554 35.7972 23.2144 34.7663 23.3236C34.1145 22.5163 33.1174 22 32 22C30.8826 22 29.8855 22.5163 29.2337 23.3236C28.2028 23.2144 27.1333 23.5554 26.3432 24.3467C25.553 25.1381 25.2125 26.2092 25.3216 27.2418C24.5155 27.8946 24 28.8931 24 30.0123Z" fill="#C27C6E"/>
  <path d="M32 33C33.6569 33 35 31.6569 35 30C35 28.3431 33.6569 27 32 27C30.3431 27 29 28.3431 29 30C29 31.6569 30.3431 33 32 33Z" fill="#FFD0C7"/>
  </svg>
