<svg width="24" height="25" viewBox="0 0 24 25" fill="none" xmlns="http://www.w3.org/2000/svg">
<mask id="mask0_1607_11492" style="mask-type:alpha" maskUnits="userSpaceOnUse" x="3" y="2" width="18" height="21">
<path fill-rule="evenodd" clip-rule="evenodd" d="M3.00024 2.24371H20.0524V22.3849H3.00024V2.24371Z" fill="white"/>
</mask>
<g mask="url(#mask0_1607_11492)">
<path fill-rule="evenodd" clip-rule="evenodd" d="M7.57331 3.76545C5.91631 3.76545 4.54031 5.1269 4.50131 6.80589V17.6802C4.46531 19.4059 5.80531 20.8262 7.49031 20.8637H15.5733C17.2423 20.8028 18.5633 19.4059 18.5523 17.6853V8.66342L13.9183 3.76545H7.58531H7.57331ZM7.58531 22.3855H7.45931C4.94731 22.3307 2.94731 20.2124 3.00131 17.664V6.78763C3.06031 4.27067 5.10831 2.24371 7.57031 2.24371H7.58831H14.2373C14.4413 2.24371 14.6363 2.32792 14.7783 2.47705L19.8443 7.83052C19.9773 7.97154 20.0523 8.16125 20.0523 8.35705V17.6802C20.0683 20.2256 18.1123 22.2941 15.5993 22.3855H7.58531Z" fill="currentColor"/>
</g>
<path fill-rule="evenodd" clip-rule="evenodd" d="M19.298 9.3174H16.544C14.713 9.31232 13.226 7.7987 13.226 5.94421V2.99305C13.226 2.57305 13.562 2.23218 13.976 2.23218C14.39 2.23218 14.726 2.57305 14.726 2.99305V5.94421C14.726 6.96276 15.542 7.79261 16.546 7.79566H19.298C19.712 7.79566 20.048 8.13653 20.048 8.55653C20.048 8.97653 19.712 9.3174 19.298 9.3174Z" fill="currentColor"/>
<path fill-rule="evenodd" clip-rule="evenodd" d="M11.1417 17.1451C10.7277 17.1451 10.3917 16.8042 10.3917 16.3842V10.2557C10.3917 9.83568 10.7277 9.49481 11.1417 9.49481C11.5557 9.49481 11.8917 9.83568 11.8917 10.2557V16.3842C11.8917 16.8042 11.5557 17.1451 11.1417 17.1451Z" fill="currentColor"/>
<path fill-rule="evenodd" clip-rule="evenodd" d="M8.79699 13.4061C8.60599 13.4061 8.41399 13.3321 8.26799 13.1839C7.97499 12.8877 7.97299 12.4068 8.26599 12.1086L10.61 9.71844C10.892 9.43134 11.392 9.43134 11.673 9.71844L14.019 12.1086C14.311 12.4068 14.31 12.8877 14.017 13.1839C13.723 13.4802 13.248 13.4802 12.956 13.1819L11.142 11.3335L9.32799 13.1819C9.18199 13.3321 8.98899 13.4061 8.79699 13.4061Z" fill="currentColor"/>
</svg>
