<svg width="24" height="25" viewBox="0 0 24 25" fill="none" xmlns="http://www.w3.org/2000/svg">
<path fill-rule="evenodd" clip-rule="evenodd" d="M13.8244 7.67016C13.8244 5.48278 12.0737 3.70351 9.92144 3.70351C7.7692 3.70351 6.01851 5.48278 6.01851 7.67016C6.01851 9.85754 7.7692 11.6368 9.92144 11.6368C12.0737 11.6368 13.8244 9.85754 13.8244 7.67016ZM15.2552 7.67016C15.2552 10.6596 12.8628 13.092 9.92144 13.092C6.98005 13.092 4.58767 10.6596 4.58767 7.67016C4.58767 4.68074 6.98005 2.24829 9.92144 2.24829C12.8628 2.24829 15.2552 4.68074 15.2552 7.67016ZM21.2527 10.3887H19.9613V9.11879C19.9613 8.69954 19.6266 8.35929 19.214 8.35929C18.8015 8.35929 18.4667 8.69954 18.4667 9.11879V10.3887H17.1774C16.7649 10.3887 16.4301 10.7289 16.4301 11.1482C16.4301 11.5674 16.7649 11.9077 17.1774 11.9077H18.4667V13.1786C18.4667 13.5979 18.8015 13.9381 19.214 13.9381C19.6266 13.9381 19.9613 13.5979 19.9613 13.1786V11.9077H21.2527C21.6652 11.9077 22 11.5674 22 11.1482C22 10.7289 21.6652 10.3887 21.2527 10.3887ZM9.92144 15.0486C6.5207 15.0486 2 15.4334 2 18.7651C2 19.7626 2.45635 21.1095 4.63052 21.8579C5.00616 21.9895 5.4107 21.7809 5.53824 21.4021C5.66479 21.0224 5.46451 20.6092 5.08986 20.4806C3.60222 19.9682 3.43084 19.2563 3.43084 18.7651C3.43084 17.2644 5.61497 16.5028 9.92144 16.5028C14.2279 16.5028 16.412 17.2704 16.412 18.7854C16.412 20.2872 14.2279 21.0477 9.92144 21.0477C9.59263 21.0477 9.2688 21.0437 8.95094 21.0335C8.56832 21.0366 8.22655 21.3384 8.21559 21.7394C8.20364 22.1414 8.51452 22.4766 8.90909 22.4888C9.2409 22.4969 9.57868 22.5019 9.92144 22.5019C13.3222 22.5019 17.8429 22.1161 17.8429 18.7854C17.8429 15.0486 11.8804 15.0486 9.92144 15.0486Z" fill="currentColor"/>
</svg>
