<svg width="48" height="48" viewBox="0 0 48 48" fill="none" xmlns="http://www.w3.org/2000/svg">
  <path d="M4.65388 8.57316C4.84496 6.92575 5.84441 5.56573 7.46374 5.20762C9.9896 4.64902 14.8855 4 24 4C33.1145 4 38.0104 4.64902 40.5363 5.20762C42.1556 5.56574 43.155 6.92575 43.3461 8.57316C43.6351 11.0644 44 15.1673 44 20C44 29.0284 39.2351 37.4764 31.2074 41.6079C28.5258 42.988 25.9087 44 24 44C22.0913 44 19.4742 42.988 16.7925 41.6079C8.76493 37.4764 4 29.0284 4 20C4 15.1673 4.36493 11.0644 4.65388 8.57316Z" fill="#FFD0C7"/>
  <path d="M21.7793 10.2959C20.5779 10.6388 20.0421 11.8711 20.1241 13.1178C20.313 15.9924 20.6945 21.2959 21.1058 24.1431C21.2274 24.9854 21.7159 25.7208 22.5522 25.8785C22.9286 25.9495 23.4054 26 24 26C24.5946 26 25.0714 25.9495 25.4478 25.8785C26.2841 25.7208 26.7726 24.9854 26.8942 24.1431C27.3055 21.2959 27.687 15.9924 27.8759 13.1178C27.9579 11.8711 27.4221 10.6388 26.2207 10.2959C25.6284 10.1268 24.8881 10 24 10C23.1119 10 22.3716 10.1268 21.7793 10.2959Z" fill="#BE8D84"/>
  <path d="M24 37C26.2091 37 28 35.2091 28 33C28 30.7909 26.2091 29 24 29C21.7909 29 20 30.7909 20 33C20 35.2091 21.7909 37 24 37Z" fill="#BE8D84"/>
  </svg>
